<?xml version="1.0" encoding="UTF-8"?>
<!DOCTYPE svg PUBLIC "-//W3C//DTD SVG 1.1//EN" "http://www.w3.org/Graphics/SVG/1.1/DTD/svg11.dtd">
<svg xmlns="http://www.w3.org/2000/svg" version="1.1" width="512px" height="512px" style="shape-rendering:geometricPrecision; text-rendering:geometricPrecision; image-rendering:optimizeQuality; fill-rule:evenodd; clip-rule:evenodd" xmlns:xlink="http://www.w3.org/1999/xlink">
<g><path style="opacity:0.994" fill="#8cb0ff" d="M 233.5,-0.5 C 233.833,-0.5 234.167,-0.5 234.5,-0.5C 234.5,23.1667 234.5,46.8333 234.5,70.5C 229.5,70.5 224.5,70.5 219.5,70.5C 219.5,47.5 219.5,24.5 219.5,1.5C 224.338,1.08855 229.005,0.421887 233.5,-0.5 Z"/></g>
<g><path style="opacity:0.996" fill="#92aeff" d="M 234.5,-0.5 C 239.5,-0.5 244.5,-0.5 249.5,-0.5C 249.5,23.1667 249.5,46.8333 249.5,70.5C 244.5,70.5 239.5,70.5 234.5,70.5C 234.5,46.8333 234.5,23.1667 234.5,-0.5 Z"/></g>
<g><path style="opacity:0.998" fill="#99abff" d="M 249.5,-0.5 C 255.167,-0.5 260.833,-0.5 266.5,-0.5C 266.5,23.1667 266.5,46.8333 266.5,70.5C 260.833,70.5 255.167,70.5 249.5,70.5C 249.5,46.8333 249.5,23.1667 249.5,-0.5 Z"/></g>
<g><path style="opacity:0.992" fill="#9fa9ff" d="M 266.5,-0.5 C 270.167,-0.5 273.833,-0.5 277.5,-0.5C 278.568,0.434475 279.901,0.767809 281.5,0.5C 281.5,23.8333 281.5,47.1667 281.5,70.5C 276.5,70.5 271.5,70.5 266.5,70.5C 266.5,46.8333 266.5,23.1667 266.5,-0.5 Z"/></g>
<g><path style="opacity:0.992" fill="#a5a6ff" d="M 281.5,0.5 C 286.595,0.761548 291.595,1.42821 296.5,2.5C 296.5,25.1667 296.5,47.8333 296.5,70.5C 291.5,70.5 286.5,70.5 281.5,70.5C 281.5,47.1667 281.5,23.8333 281.5,0.5 Z"/></g>
<g><path style="opacity:0.991" fill="#86b3ff" d="M 219.5,1.5 C 219.5,24.5 219.5,47.5 219.5,70.5C 214.5,70.5 209.5,70.5 204.5,70.5C 204.5,48.5 204.5,26.5 204.5,4.5C 209.304,3.13916 214.304,2.13916 219.5,1.5 Z"/></g>
<g><path style="opacity:0.992" fill="#aba3fe" d="M 296.5,2.5 C 301.422,2.87036 306.089,3.87036 310.5,5.5C 310.5,27.1667 310.5,48.8333 310.5,70.5C 305.833,70.5 301.167,70.5 296.5,70.5C 296.5,47.8333 296.5,25.1667 296.5,2.5 Z"/></g>
<g><path style="opacity:0.991" fill="#7fb6ff" d="M 204.5,4.5 C 204.5,26.5 204.5,48.5 204.5,70.5C 198.5,70.5 192.5,70.5 186.5,70.5C 186.5,49.8333 186.5,29.1667 186.5,8.5C 192.335,6.54187 198.335,5.20854 204.5,4.5 Z"/></g>
<g><path style="opacity:0.991" fill="#b1a1fe" d="M 310.5,5.5 C 316.645,6.20299 322.645,7.53632 328.5,9.5C 328.5,29.8333 328.5,50.1667 328.5,70.5C 322.5,70.5 316.5,70.5 310.5,70.5C 310.5,48.8333 310.5,27.1667 310.5,5.5 Z"/></g>
<g><path style="opacity:0.99" fill="#79b8ff" d="M 186.5,8.5 C 186.5,29.1667 186.5,49.8333 186.5,70.5C 181.833,70.5 177.167,70.5 172.5,70.5C 172.5,51.1667 172.5,31.8333 172.5,12.5C 177.108,10.964 181.775,9.63063 186.5,8.5 Z"/></g>
<g><path style="opacity:0.989" fill="#b89eff" d="M 328.5,9.5 C 333.579,10.9706 338.579,12.6373 343.5,14.5C 343.5,34.8333 343.5,55.1667 343.5,75.5C 338.697,73.2324 333.697,71.5658 328.5,70.5C 328.5,50.1667 328.5,29.8333 328.5,9.5 Z"/></g>
<g><path style="opacity:0.99" fill="#be9bff" d="M 343.5,14.5 C 348.617,16.2259 353.617,18.2259 358.5,20.5C 358.5,44.1667 358.5,67.8333 358.5,91.5C 354.911,84.9085 349.911,79.5751 343.5,75.5C 343.5,55.1667 343.5,34.8333 343.5,14.5 Z"/></g>
<g><path style="opacity:0.985" fill="#6fbdff" d="M 172.5,12.5 C 172.5,31.8333 172.5,51.1667 172.5,70.5C 162.476,70.3344 152.476,70.6677 142.5,71.5C 142.5,56.1667 142.5,40.8333 142.5,25.5C 152.098,20.4056 162.098,16.0723 172.5,12.5 Z"/></g>
<g><path style="opacity:0.995" fill="#c499ff" d="M 358.5,20.5 C 363.62,22.56 368.62,24.8933 373.5,27.5C 373.5,83.8333 373.5,140.167 373.5,196.5C 363.473,186.806 353.473,177.139 343.5,167.5C 343.5,164.833 343.5,162.167 343.5,159.5C 345.735,159.795 347.735,159.461 349.5,158.5C 355.445,157.056 359.278,153.389 361,147.5C 361.667,131.167 361.667,114.833 361,98.5C 360.009,96.1924 359.176,93.8591 358.5,91.5C 358.5,67.8333 358.5,44.1667 358.5,20.5 Z"/></g>
<g><path style="opacity:0.983" fill="#67c1ff" d="M 142.5,25.5 C 142.5,40.8333 142.5,56.1667 142.5,71.5C 136.06,73.8919 130.393,77.5585 125.5,82.5C 124.504,67.0089 124.17,51.3422 124.5,35.5C 129.847,31.1559 135.847,27.8226 142.5,25.5 Z"/></g>
<g><path style="opacity:0.995" fill="#ca96ff" d="M 373.5,27.5 C 379.87,30.679 385.87,34.3457 391.5,38.5C 391.5,97.1667 391.5,155.833 391.5,214.5C 385.167,208.833 379.167,202.833 373.5,196.5C 373.5,140.167 373.5,83.8333 373.5,27.5 Z"/></g>
<g><path style="opacity:0.994" fill="#66c6ff" d="M 124.5,35.5 C 124.17,51.3422 124.504,67.0089 125.5,82.5C 121.372,87.0867 118.539,92.4201 117,98.5C 116.333,203.167 116.333,307.833 117,412.5C 118.539,418.58 121.372,423.913 125.5,428.5C 124.504,443.991 124.17,459.658 124.5,475.5C 119.255,472.925 114.255,469.925 109.5,466.5C 109.5,325.833 109.5,185.167 109.5,44.5C 114.255,41.0751 119.255,38.0751 124.5,35.5 Z"/></g>
<g><path style="opacity:0.996" fill="#d193ff" d="M 391.5,38.5 C 396.515,41.0043 401.181,44.0043 405.5,47.5C 405.832,107.336 405.499,167.002 404.5,226.5C 400.141,222.472 395.807,218.472 391.5,214.5C 391.5,155.833 391.5,97.1667 391.5,38.5 Z"/></g>
<g><path style="opacity:0.996" fill="#5ac6ff" d="M 109.5,44.5 C 109.5,185.167 109.5,325.833 109.5,466.5C 104.431,463.305 99.7646,459.638 95.5,455.5C 95.5,322.167 95.5,188.833 95.5,55.5C 99.7646,51.3621 104.431,47.6954 109.5,44.5 Z"/></g>
<g><path style="opacity:0.995" fill="#d790ff" d="M 405.5,47.5 C 411.438,51.106 416.771,55.4393 421.5,60.5C 421.5,121.5 421.5,182.5 421.5,243.5C 415.5,238.167 409.833,232.5 404.5,226.5C 405.499,167.002 405.832,107.336 405.5,47.5 Z"/></g>
<g><path style="opacity:0.996" fill="#54c8ff" d="M 95.5,55.5 C 95.5,188.833 95.5,322.167 95.5,455.5C 90.1793,451.511 85.1793,447.178 80.5,442.5C 80.5,317.833 80.5,193.167 80.5,68.5C 85.1793,63.8223 90.1793,59.489 95.5,55.5 Z"/></g>
<g><path style="opacity:0.996" fill="#dd8eff" d="M 421.5,60.5 C 426.794,64.1266 431.461,68.46 435.5,73.5C 435.5,194.833 435.5,316.167 435.5,437.5C 431.461,442.54 426.794,446.873 421.5,450.5C 421.5,389.5 421.5,328.5 421.5,267.5C 428.117,259.431 428.117,251.431 421.5,243.5C 421.5,182.5 421.5,121.5 421.5,60.5 Z"/></g>
<g><path style="opacity:0.996" fill="#4ecbff" d="M 80.5,68.5 C 80.5,193.167 80.5,317.833 80.5,442.5C 73.7751,436.777 67.7751,430.444 62.5,423.5C 62.5,311.5 62.5,199.5 62.5,87.5C 67.7751,80.5561 73.7751,74.2228 80.5,68.5 Z"/></g>
<g><path style="opacity:1" fill="#fefeff" d="M 172.5,70.5 C 177.167,70.5 181.833,70.5 186.5,70.5C 192.5,70.5 198.5,70.5 204.5,70.5C 209.5,70.5 214.5,70.5 219.5,70.5C 224.5,70.5 229.5,70.5 234.5,70.5C 239.5,70.5 244.5,70.5 249.5,70.5C 255.167,70.5 260.833,70.5 266.5,70.5C 271.5,70.5 276.5,70.5 281.5,70.5C 286.5,70.5 291.5,70.5 296.5,70.5C 301.167,70.5 305.833,70.5 310.5,70.5C 316.5,70.5 322.5,70.5 328.5,70.5C 333.697,71.5658 338.697,73.2324 343.5,75.5C 349.911,79.5751 354.911,84.9085 358.5,91.5C 359.176,93.8591 360.009,96.1924 361,98.5C 361.667,114.833 361.667,131.167 361,147.5C 359.278,153.389 355.445,157.056 349.5,158.5C 342.149,159.648 336.649,156.981 333,150.5C 332.016,134.475 331.016,118.475 330,102.5C 328.933,101.809 327.766,101.309 326.5,101C 321.177,100.501 315.844,100.334 310.5,100.5C 305.833,100.5 301.167,100.5 296.5,100.5C 291.5,100.5 286.5,100.5 281.5,100.5C 276.5,100.5 271.5,100.5 266.5,100.5C 260.833,100.5 255.167,100.5 249.5,100.5C 244.5,100.5 239.5,100.5 234.5,100.5C 229.5,100.5 224.5,100.5 219.5,100.5C 214.5,100.5 209.5,100.5 204.5,100.5C 198.5,100.5 192.5,100.5 186.5,100.5C 181.833,100.5 177.167,100.5 172.5,100.5C 170.167,100.5 167.833,100.5 165.5,100.5C 162.833,100.5 160.167,100.5 157.5,100.5C 153.397,99.7691 149.897,100.769 147,103.5C 146.333,204.833 146.333,306.167 147,407.5C 149.897,410.231 153.397,411.231 157.5,410.5C 160.167,410.5 162.833,410.5 165.5,410.5C 167.833,410.5 170.167,410.5 172.5,410.5C 177.167,410.5 181.833,410.5 186.5,410.5C 192.5,410.5 198.5,410.5 204.5,410.5C 209.5,410.5 214.5,410.5 219.5,410.5C 224.5,410.5 229.5,410.5 234.5,410.5C 239.5,410.5 244.5,410.5 249.5,410.5C 255.167,410.5 260.833,410.5 266.5,410.5C 271.5,410.5 276.5,410.5 281.5,410.5C 286.5,410.5 291.5,410.5 296.5,410.5C 301.167,410.5 305.833,410.5 310.5,410.5C 315.844,410.666 321.177,410.499 326.5,410C 327.766,409.691 328.933,409.191 330,408.5C 331.302,393.259 331.969,377.926 332,362.5C 335.145,355.181 340.645,351.848 348.5,352.5C 354.57,353.399 358.737,356.732 361,362.5C 361.667,378.833 361.667,395.167 361,411.5C 359.659,414.022 358.826,416.689 358.5,419.5C 354.911,426.092 349.911,431.425 343.5,435.5C 338.697,437.768 333.697,439.434 328.5,440.5C 322.5,440.5 316.5,440.5 310.5,440.5C 305.833,440.5 301.167,440.5 296.5,440.5C 291.5,440.5 286.5,440.5 281.5,440.5C 276.5,440.5 271.5,440.5 266.5,440.5C 260.833,440.5 255.167,440.5 249.5,440.5C 244.5,440.5 239.5,440.5 234.5,440.5C 229.5,440.5 224.5,440.5 219.5,440.5C 214.5,440.5 209.5,440.5 204.5,440.5C 198.5,440.5 192.5,440.5 186.5,440.5C 176.833,440.5 167.167,440.5 157.5,440.5C 152.482,440.387 147.482,440.053 142.5,439.5C 136.06,437.108 130.393,433.441 125.5,428.5C 121.372,423.913 118.539,418.58 117,412.5C 116.333,307.833 116.333,203.167 117,98.5C 118.539,92.4201 121.372,87.0867 125.5,82.5C 130.393,77.5585 136.06,73.8919 142.5,71.5C 152.476,70.6677 162.476,70.3344 172.5,70.5 Z"/></g>
<g><path style="opacity:0.995" fill="#e38bfe" d="M 435.5,73.5 C 442.203,79.2023 448.203,85.5356 453.5,92.5C 453.5,201.167 453.5,309.833 453.5,418.5C 448.203,425.464 442.203,431.798 435.5,437.5C 435.5,316.167 435.5,194.833 435.5,73.5 Z"/></g>
<g><path style="opacity:0.993" fill="#46ceff" d="M 62.5,87.5 C 62.5,199.5 62.5,311.5 62.5,423.5C 56.7763,418.109 51.7763,412.109 47.5,405.5C 47.5,305.5 47.5,205.5 47.5,105.5C 51.7763,98.8909 56.7763,92.8909 62.5,87.5 Z"/></g>
<g><path style="opacity:0.993" fill="#ea88fe" d="M 453.5,92.5 C 459.233,98.9633 464.233,105.963 468.5,113.5C 468.5,208.167 468.5,302.833 468.5,397.5C 464.233,405.037 459.233,412.037 453.5,418.5C 453.5,309.833 453.5,201.167 453.5,92.5 Z"/></g>
<g><path style="opacity:1" fill="#6ebdff" d="M 157.5,100.5 C 157.5,203.833 157.5,307.167 157.5,410.5C 153.397,411.231 149.897,410.231 147,407.5C 146.333,306.167 146.333,204.833 147,103.5C 149.897,100.769 153.397,99.7691 157.5,100.5 Z"/></g>
<g><path style="opacity:1" fill="#72bcff" d="M 157.5,100.5 C 160.167,100.5 162.833,100.5 165.5,100.5C 165.5,203.833 165.5,307.167 165.5,410.5C 162.833,410.5 160.167,410.5 157.5,410.5C 157.5,307.167 157.5,203.833 157.5,100.5 Z"/></g>
<g><path style="opacity:1" fill="#75baff" d="M 165.5,100.5 C 167.833,100.5 170.167,100.5 172.5,100.5C 172.5,203.833 172.5,307.167 172.5,410.5C 170.167,410.5 167.833,410.5 165.5,410.5C 165.5,307.167 165.5,203.833 165.5,100.5 Z"/></g>
<g><path style="opacity:1" fill="#79b9ff" d="M 172.5,100.5 C 177.167,100.5 181.833,100.5 186.5,100.5C 186.5,203.833 186.5,307.167 186.5,410.5C 181.833,410.5 177.167,410.5 172.5,410.5C 172.5,307.167 172.5,203.833 172.5,100.5 Z"/></g>
<g><path style="opacity:1" fill="#7fb6ff" d="M 186.5,100.5 C 192.5,100.5 198.5,100.5 204.5,100.5C 204.5,203.833 204.5,307.167 204.5,410.5C 198.5,410.5 192.5,410.5 186.5,410.5C 186.5,307.167 186.5,203.833 186.5,100.5 Z"/></g>
<g><path style="opacity:1" fill="#86b3ff" d="M 204.5,100.5 C 209.5,100.5 214.5,100.5 219.5,100.5C 219.5,203.833 219.5,307.167 219.5,410.5C 214.5,410.5 209.5,410.5 204.5,410.5C 204.5,307.167 204.5,203.833 204.5,100.5 Z"/></g>
<g><path style="opacity:1" fill="#8cb1ff" d="M 219.5,100.5 C 224.5,100.5 229.5,100.5 234.5,100.5C 234.5,147.167 234.5,193.833 234.5,240.5C 224.336,245.49 221.503,253.156 226,263.5C 228.441,266.454 231.275,268.787 234.5,270.5C 234.5,317.167 234.5,363.833 234.5,410.5C 229.5,410.5 224.5,410.5 219.5,410.5C 219.5,307.167 219.5,203.833 219.5,100.5 Z"/></g>
<g><path style="opacity:1" fill="#92aeff" d="M 234.5,100.5 C 239.5,100.5 244.5,100.5 249.5,100.5C 249.5,147.167 249.5,193.833 249.5,240.5C 244.5,240.5 239.5,240.5 234.5,240.5C 234.5,193.833 234.5,147.167 234.5,100.5 Z"/></g>
<g><path style="opacity:1" fill="#99abff" d="M 249.5,100.5 C 255.167,100.5 260.833,100.5 266.5,100.5C 266.5,147.167 266.5,193.833 266.5,240.5C 260.833,240.5 255.167,240.5 249.5,240.5C 249.5,193.833 249.5,147.167 249.5,100.5 Z"/></g>
<g><path style="opacity:1" fill="#9fa9ff" d="M 266.5,100.5 C 271.5,100.5 276.5,100.5 281.5,100.5C 281.5,147.167 281.5,193.833 281.5,240.5C 276.5,240.5 271.5,240.5 266.5,240.5C 266.5,193.833 266.5,147.167 266.5,100.5 Z"/></g>
<g><path style="opacity:1" fill="#a5a6ff" d="M 281.5,100.5 C 286.5,100.5 291.5,100.5 296.5,100.5C 296.5,147.167 296.5,193.833 296.5,240.5C 291.5,240.5 286.5,240.5 281.5,240.5C 281.5,193.833 281.5,147.167 281.5,100.5 Z"/></g>
<g><path style="opacity:1" fill="#aba3fe" d="M 296.5,100.5 C 301.167,100.5 305.833,100.5 310.5,100.5C 310.5,147.167 310.5,193.833 310.5,240.5C 305.833,240.5 301.167,240.5 296.5,240.5C 296.5,193.833 296.5,147.167 296.5,100.5 Z"/></g>
<g><path style="opacity:1" fill="#b2a1ff" d="M 310.5,100.5 C 315.844,100.334 321.177,100.501 326.5,101C 327.766,101.309 328.933,101.809 330,102.5C 331.016,118.475 332.016,134.475 333,150.5C 336.649,156.981 342.149,159.648 349.5,158.5C 347.735,159.461 345.735,159.795 343.5,159.5C 343.5,162.167 343.5,164.833 343.5,167.5C 333.61,163.531 326.11,166.198 321,175.5C 320.233,179.594 320.566,183.594 322,187.5C 324.335,190.665 326.835,193.665 329.5,196.5C 328.504,210.99 328.171,225.657 328.5,240.5C 322.5,240.5 316.5,240.5 310.5,240.5C 310.5,193.833 310.5,147.167 310.5,100.5 Z"/></g>
<g><path style="opacity:0.991" fill="#41d0ff" d="M 47.5,105.5 C 47.5,205.5 47.5,305.5 47.5,405.5C 42.337,398.513 37.6703,391.18 33.5,383.5C 33.5,298.167 33.5,212.833 33.5,127.5C 37.6703,119.82 42.337,112.487 47.5,105.5 Z"/></g>
<g><path style="opacity:0.99" fill="#f086fe" d="M 468.5,113.5 C 473.953,120.635 478.62,128.301 482.5,136.5C 482.5,215.833 482.5,295.167 482.5,374.5C 478.62,382.699 473.953,390.365 468.5,397.5C 468.5,302.833 468.5,208.167 468.5,113.5 Z"/></g>
<g><path style="opacity:0.987" fill="#3bd3ff" d="M 33.5,127.5 C 33.5,212.833 33.5,298.167 33.5,383.5C 27.7983,374.763 23.1316,365.43 19.5,355.5C 19.5,288.833 19.5,222.167 19.5,155.5C 23.1316,145.57 27.7983,136.237 33.5,127.5 Z"/></g>
<g><path style="opacity:0.986" fill="#f583fe" d="M 482.5,136.5 C 488.844,147.529 493.844,159.196 497.5,171.5C 497.5,227.5 497.5,283.5 497.5,339.5C 493.844,351.804 488.844,363.471 482.5,374.5C 482.5,295.167 482.5,215.833 482.5,136.5 Z"/></g>
<g><path style="opacity:0.965" fill="#35d6ff" d="M 19.5,155.5 C 19.5,222.167 19.5,288.833 19.5,355.5C 8.75688,330.527 2.09022,304.527 -0.5,277.5C -0.5,262.833 -0.5,248.167 -0.5,233.5C 2.09022,206.473 8.75688,180.473 19.5,155.5 Z"/></g>
<g><path style="opacity:1" fill="#fefeff" d="M 343.5,167.5 C 353.473,177.139 363.473,186.806 373.5,196.5C 379.167,202.833 385.167,208.833 391.5,214.5C 395.807,218.472 400.141,222.472 404.5,226.5C 409.833,232.5 415.5,238.167 421.5,243.5C 428.117,251.431 428.117,259.431 421.5,267.5C 415.5,272.833 409.833,278.5 404.5,284.5C 400.141,288.528 395.807,292.528 391.5,296.5C 385.167,302.167 379.167,308.167 373.5,314.5C 363.473,324.194 353.473,333.861 343.5,343.5C 333.61,347.469 326.11,344.802 321,335.5C 320.333,332.167 320.333,328.833 321,325.5C 323.284,321.386 326.117,317.72 329.5,314.5C 334.5,310.167 339.167,305.5 343.5,300.5C 354.267,291.236 364.6,281.403 374.5,271C 364.172,270.5 353.839,270.334 343.5,270.5C 338.5,270.5 333.5,270.5 328.5,270.5C 322.5,270.5 316.5,270.5 310.5,270.5C 305.833,270.5 301.167,270.5 296.5,270.5C 291.5,270.5 286.5,270.5 281.5,270.5C 276.5,270.5 271.5,270.5 266.5,270.5C 260.833,270.5 255.167,270.5 249.5,270.5C 244.5,270.5 239.5,270.5 234.5,270.5C 231.275,268.787 228.441,266.454 226,263.5C 221.503,253.156 224.336,245.49 234.5,240.5C 239.5,240.5 244.5,240.5 249.5,240.5C 255.167,240.5 260.833,240.5 266.5,240.5C 271.5,240.5 276.5,240.5 281.5,240.5C 286.5,240.5 291.5,240.5 296.5,240.5C 301.167,240.5 305.833,240.5 310.5,240.5C 316.5,240.5 322.5,240.5 328.5,240.5C 333.5,240.5 338.5,240.5 343.5,240.5C 353.839,240.666 364.172,240.5 374.5,240C 364.6,229.597 354.267,219.764 343.5,210.5C 339.167,205.5 334.5,200.833 329.5,196.5C 326.835,193.665 324.335,190.665 322,187.5C 320.566,183.594 320.233,179.594 321,175.5C 326.11,166.198 333.61,163.531 343.5,167.5 Z"/></g>
<g><path style="opacity:0.948" fill="#fb81fe" d="M 497.5,171.5 C 504.696,191.615 509.363,212.282 511.5,233.5C 511.5,248.167 511.5,262.833 511.5,277.5C 509.363,298.718 504.696,319.385 497.5,339.5C 497.5,283.5 497.5,227.5 497.5,171.5 Z"/></g>
<g><path style="opacity:1" fill="#b89eff" d="M 329.5,196.5 C 334.5,200.833 339.167,205.5 343.5,210.5C 343.5,220.5 343.5,230.5 343.5,240.5C 338.5,240.5 333.5,240.5 328.5,240.5C 328.171,225.657 328.504,210.99 329.5,196.5 Z"/></g>
<g><path style="opacity:1" fill="#c09cff" d="M 343.5,210.5 C 354.267,219.764 364.6,229.597 374.5,240C 364.172,240.5 353.839,240.666 343.5,240.5C 343.5,230.5 343.5,220.5 343.5,210.5 Z"/></g>
<g><path style="opacity:0.995" fill="#d790ff" d="M 421.5,267.5 C 421.5,328.5 421.5,389.5 421.5,450.5C 416.771,455.561 411.438,459.894 405.5,463.5C 405.832,403.664 405.499,343.998 404.5,284.5C 409.833,278.5 415.5,272.833 421.5,267.5 Z"/></g>
<g><path style="opacity:1" fill="#92aeff" d="M 234.5,270.5 C 239.5,270.5 244.5,270.5 249.5,270.5C 249.5,317.167 249.5,363.833 249.5,410.5C 244.5,410.5 239.5,410.5 234.5,410.5C 234.5,363.833 234.5,317.167 234.5,270.5 Z"/></g>
<g><path style="opacity:1" fill="#99abff" d="M 249.5,270.5 C 255.167,270.5 260.833,270.5 266.5,270.5C 266.5,317.167 266.5,363.833 266.5,410.5C 260.833,410.5 255.167,410.5 249.5,410.5C 249.5,363.833 249.5,317.167 249.5,270.5 Z"/></g>
<g><path style="opacity:1" fill="#9fa9ff" d="M 266.5,270.5 C 271.5,270.5 276.5,270.5 281.5,270.5C 281.5,317.167 281.5,363.833 281.5,410.5C 276.5,410.5 271.5,410.5 266.5,410.5C 266.5,363.833 266.5,317.167 266.5,270.5 Z"/></g>
<g><path style="opacity:1" fill="#a5a6ff" d="M 281.5,270.5 C 286.5,270.5 291.5,270.5 296.5,270.5C 296.5,317.167 296.5,363.833 296.5,410.5C 291.5,410.5 286.5,410.5 281.5,410.5C 281.5,363.833 281.5,317.167 281.5,270.5 Z"/></g>
<g><path style="opacity:1" fill="#aba3fe" d="M 296.5,270.5 C 301.167,270.5 305.833,270.5 310.5,270.5C 310.5,317.167 310.5,363.833 310.5,410.5C 305.833,410.5 301.167,410.5 296.5,410.5C 296.5,363.833 296.5,317.167 296.5,270.5 Z"/></g>
<g><path style="opacity:1" fill="#b2a1ff" d="M 310.5,270.5 C 316.5,270.5 322.5,270.5 328.5,270.5C 328.171,285.343 328.504,300.01 329.5,314.5C 326.117,317.72 323.284,321.386 321,325.5C 320.333,328.833 320.333,332.167 321,335.5C 326.11,344.802 333.61,347.469 343.5,343.5C 343.5,346.167 343.5,348.833 343.5,351.5C 345.415,351.216 347.081,351.549 348.5,352.5C 340.645,351.848 335.145,355.181 332,362.5C 331.969,377.926 331.302,393.259 330,408.5C 328.933,409.191 327.766,409.691 326.5,410C 321.177,410.499 315.844,410.666 310.5,410.5C 310.5,363.833 310.5,317.167 310.5,270.5 Z"/></g>
<g><path style="opacity:1" fill="#b89eff" d="M 328.5,270.5 C 333.5,270.5 338.5,270.5 343.5,270.5C 343.5,280.5 343.5,290.5 343.5,300.5C 339.167,305.5 334.5,310.167 329.5,314.5C 328.504,300.01 328.171,285.343 328.5,270.5 Z"/></g>
<g><path style="opacity:1" fill="#c09cff" d="M 343.5,270.5 C 353.839,270.334 364.172,270.5 374.5,271C 364.6,281.403 354.267,291.236 343.5,300.5C 343.5,290.5 343.5,280.5 343.5,270.5 Z"/></g>
<g><path style="opacity:0.996" fill="#d193ff" d="M 404.5,284.5 C 405.499,343.998 405.832,403.664 405.5,463.5C 401.181,466.996 396.515,469.996 391.5,472.5C 391.5,413.833 391.5,355.167 391.5,296.5C 395.807,292.528 400.141,288.528 404.5,284.5 Z"/></g>
<g><path style="opacity:0.995" fill="#ca96ff" d="M 391.5,296.5 C 391.5,355.167 391.5,413.833 391.5,472.5C 385.87,476.654 379.87,480.321 373.5,483.5C 373.5,427.167 373.5,370.833 373.5,314.5C 379.167,308.167 385.167,302.167 391.5,296.5 Z"/></g>
<g><path style="opacity:0.995" fill="#c499ff" d="M 373.5,314.5 C 373.5,370.833 373.5,427.167 373.5,483.5C 368.62,486.107 363.62,488.44 358.5,490.5C 358.5,466.833 358.5,443.167 358.5,419.5C 358.826,416.689 359.659,414.022 361,411.5C 361.667,395.167 361.667,378.833 361,362.5C 358.737,356.732 354.57,353.399 348.5,352.5C 347.081,351.549 345.415,351.216 343.5,351.5C 343.5,348.833 343.5,346.167 343.5,343.5C 353.473,333.861 363.473,324.194 373.5,314.5 Z"/></g>
<g><path style="opacity:0.99" fill="#be9bff" d="M 358.5,419.5 C 358.5,443.167 358.5,466.833 358.5,490.5C 353.617,492.774 348.617,494.774 343.5,496.5C 343.5,476.167 343.5,455.833 343.5,435.5C 349.911,431.425 354.911,426.092 358.5,419.5 Z"/></g>
<g><path style="opacity:0.983" fill="#67c1ff" d="M 125.5,428.5 C 130.393,433.441 136.06,437.108 142.5,439.5C 142.5,454.833 142.5,470.167 142.5,485.5C 135.847,483.177 129.847,479.844 124.5,475.5C 124.17,459.658 124.504,443.991 125.5,428.5 Z"/></g>
<g><path style="opacity:0.989" fill="#b89eff" d="M 343.5,435.5 C 343.5,455.833 343.5,476.167 343.5,496.5C 338.579,498.363 333.579,500.029 328.5,501.5C 328.5,481.167 328.5,460.833 328.5,440.5C 333.697,439.434 338.697,437.768 343.5,435.5 Z"/></g>
<g><path style="opacity:0.985" fill="#6ebeff" d="M 142.5,439.5 C 147.482,440.053 152.482,440.387 157.5,440.5C 157.5,457.833 157.5,475.167 157.5,492.5C 152.311,490.403 147.311,488.07 142.5,485.5C 142.5,470.167 142.5,454.833 142.5,439.5 Z"/></g>
<g><path style="opacity:0.99" fill="#77b9ff" d="M 157.5,440.5 C 167.167,440.5 176.833,440.5 186.5,440.5C 186.5,461.167 186.5,481.833 186.5,502.5C 176.54,499.958 166.873,496.625 157.5,492.5C 157.5,475.167 157.5,457.833 157.5,440.5 Z"/></g>
<g><path style="opacity:0.991" fill="#7fb6ff" d="M 186.5,440.5 C 192.5,440.5 198.5,440.5 204.5,440.5C 204.5,462.5 204.5,484.5 204.5,506.5C 198.335,505.791 192.335,504.458 186.5,502.5C 186.5,481.833 186.5,461.167 186.5,440.5 Z"/></g>
<g><path style="opacity:0.991" fill="#86b3ff" d="M 204.5,440.5 C 209.5,440.5 214.5,440.5 219.5,440.5C 219.5,463.5 219.5,486.5 219.5,509.5C 214.304,508.861 209.304,507.861 204.5,506.5C 204.5,484.5 204.5,462.5 204.5,440.5 Z"/></g>
<g><path style="opacity:0.994" fill="#8cb0ff" d="M 219.5,440.5 C 224.5,440.5 229.5,440.5 234.5,440.5C 234.5,464.167 234.5,487.833 234.5,511.5C 234.167,511.5 233.833,511.5 233.5,511.5C 229.005,510.578 224.338,509.911 219.5,509.5C 219.5,486.5 219.5,463.5 219.5,440.5 Z"/></g>
<g><path style="opacity:0.996" fill="#92aeff" d="M 234.5,440.5 C 239.5,440.5 244.5,440.5 249.5,440.5C 249.5,464.167 249.5,487.833 249.5,511.5C 244.5,511.5 239.5,511.5 234.5,511.5C 234.5,487.833 234.5,464.167 234.5,440.5 Z"/></g>
<g><path style="opacity:0.998" fill="#99abff" d="M 249.5,440.5 C 255.167,440.5 260.833,440.5 266.5,440.5C 266.5,464.167 266.5,487.833 266.5,511.5C 260.833,511.5 255.167,511.5 249.5,511.5C 249.5,487.833 249.5,464.167 249.5,440.5 Z"/></g>
<g><path style="opacity:0.992" fill="#9fa9ff" d="M 266.5,440.5 C 271.5,440.5 276.5,440.5 281.5,440.5C 281.5,463.833 281.5,487.167 281.5,510.5C 279.901,510.232 278.568,510.566 277.5,511.5C 273.833,511.5 270.167,511.5 266.5,511.5C 266.5,487.833 266.5,464.167 266.5,440.5 Z"/></g>
<g><path style="opacity:0.992" fill="#a5a6ff" d="M 281.5,440.5 C 286.5,440.5 291.5,440.5 296.5,440.5C 296.5,463.167 296.5,485.833 296.5,508.5C 291.595,509.572 286.595,510.238 281.5,510.5C 281.5,487.167 281.5,463.833 281.5,440.5 Z"/></g>
<g><path style="opacity:0.992" fill="#aba3fe" d="M 296.5,440.5 C 301.167,440.5 305.833,440.5 310.5,440.5C 310.5,462.167 310.5,483.833 310.5,505.5C 306.089,507.13 301.422,508.13 296.5,508.5C 296.5,485.833 296.5,463.167 296.5,440.5 Z"/></g>
<g><path style="opacity:0.991" fill="#b1a1fe" d="M 310.5,440.5 C 316.5,440.5 322.5,440.5 328.5,440.5C 328.5,460.833 328.5,481.167 328.5,501.5C 322.645,503.464 316.645,504.797 310.5,505.5C 310.5,483.833 310.5,462.167 310.5,440.5 Z"/></g>
</svg>
